<?xml version="1.0" encoding="UTF-8"?>
<svg width="147px" height="26px" viewBox="0 0 147 26" version="1.1" xmlns="http://www.w3.org/2000/svg" xmlns:xlink="http://www.w3.org/1999/xlink"><script xmlns=""/>
    <!-- Generator: Sketch 51.3 (57544) - http://www.bohemiancoding.com/sketch -->
    <title>LOGO</title>
    <desc>Created with Sketch.</desc>
    <defs/>
    <g id="Final" stroke="none" stroke-width="1" fill="none" fill-rule="evenodd">
        <g id="Montserrat--Homepage" transform="translate(-63.000000, -54.000000)" fill="#000000">
            <g id="LOGO" transform="translate(63.000000, 54.000000)">
                <path d="M7.97253692,20.8803944 L7.97253692,23.1549577 C7.97253692,23.6368015 7.44627862,23.9338926 7.02726912,23.6809326 L5.96940413,23.0016028 L5.71634586,22.8588178 C5.69827904,22.8485621 4.23556867,22.0027346 1.0572632,20.1646656 L0.804822949,20.0198627 C0.555933464,19.8761673 0.351753011,19.6705857 0.210649325,19.4224492 C0.071102304,19.1761869 -0.00151814745,18.8967489 0.00121224698,18.619095 L0,12.9545209 L0,7.28085571 C0,6.97966504 0.0850448898,6.68557728 0.24337411,6.43278952 C0.399991518,6.17917134 0.62677787,5.97076831 0.862492677,5.85681293 L5.45797725,3.20049127 L5.70890365,3.05357714 C5.79237642,3.00574072 5.79237642,3.00574072 5.96210676,2.90904092 L10.3637218,0.367388102 L10.6205083,0.215237752 C10.8884403,0.0608670642 11.1915172,-0.0125612404 11.4987483,0.00175573573 C11.7970629,0.0162383768 12.0911595,0.114035792 12.2973243,0.260807994 L16.8775142,2.90809015 L17.1312974,3.0513117 C17.1496521,3.06194552 18.6772404,3.94533871 21.7872165,5.74378266 L22.0411281,5.88905013 C22.2899225,6.03307267 22.493597,6.23838454 22.6346351,6.48650442 C22.7738542,6.73209437 22.8464617,7.01149793 22.8441221,7.28997715 L22.8450919,12.4481088 C22.8451616,12.9248219 22.3289729,13.2226915 21.9162675,12.984092 L19.9400856,11.8415918 C19.7487422,11.7309695 19.630898,11.5267186 19.630898,11.3056992 L19.630898,8.2064139 L15.6073057,5.87934974 C15.5725366,5.86211432 15.4941757,5.81739325 15.2765674,5.69128602 L11.4223569,3.46014138 L7.41237232,5.77653063 C7.37393285,5.80182982 7.37393285,5.80182982 7.3509228,5.81644975 C7.34164666,5.82216273 7.2470332,5.87723192 7.0670824,5.98165731 L3.2144363,8.20664464 L3.2144363,17.7023684 L7.23994357,20.0302812 C7.26568798,20.0431681 7.32105603,20.0748567 7.5777243,20.2230444 L7.6606677,20.2966866 L7.72939249,20.3885569 C7.88174319,20.5049492 7.97253692,20.6864443 7.97253692,20.8803944 Z M19.630898,15.0342381 C19.630898,14.5579961 20.1462122,14.2601433 20.5588826,14.4978608 L22.5350645,15.6362347 C22.7268811,15.7467301 22.8450919,15.9512462 22.8450919,16.172612 L22.8450919,18.0573 C22.8450919,18.2187973 22.7819764,18.3738999 22.6689246,18.4898067 L21.7373075,19.4396839 C21.387925,19.8863189 20.8749792,20.0640292 20.4172889,19.8003613 L13.0740777,15.5429338 L13.0722392,23.5759746 C13.0980451,23.8773885 12.9735874,24.1722746 12.7369842,24.3629468 C12.5053887,24.5501957 12.5053887,24.5501957 11.3827507,25.4571205 C11.2145044,25.6130241 10.994191,25.7 10.7636974,25.7 C10.2612508,25.7 9.85399801,25.2924398 9.85399802,24.7899029 L9.85517248,13.6815735 L8.61771876,12.9662506 L7.99211285,13.3259999 C7.96228299,13.3469047 7.97285803,13.3407606 7.34138854,13.7053167 C6.89632974,13.9656951 6.33593063,13.827933 6.07992082,13.3863518 C6.01907332,13.2812168 6.01907332,13.2812168 5.73128927,12.7839231 L5.38575624,12.187956 C5.12689388,11.7413217 5.26509648,11.1819359 5.70694292,10.9264065 C5.81499149,10.8643386 5.81499149,10.8643386 6.3146095,10.5774834 L7.82141598,9.71005777 L8.09306927,9.5566721 C8.38253241,9.35068342 8.76620263,9.33191323 9.07707916,9.51136279 L9.42023369,9.71130364 L19.630898,15.6124832 L19.630898,15.0342381 Z" id="Fills" fill-rule="nonzero"/>
                <g id="LOGO-New" transform="translate(29.000000, 6.000000)">
                    <path d="M0.434610239,12.1173267 C0.318813572,12.1173267 0.217429365,12.0740099 0.130457619,11.9876238 C0.0437343637,11.9009901 0,11.8 0,11.6846535 L0,0.432673267 C0,0.305940594 0.0437343637,0.201980198 0.130457619,0.121287129 C0.217429365,0.0403465347 0.318813572,0 0.434610239,0 L2.86758271,0 C2.99505844,0 3.09917604,0.0403465347 3.1804325,0.121287129 C3.26144047,0.201980198 3.30194446,0.305940594 3.30194446,0.432673267 L3.30194446,9.39975248 L8.51552789,9.39975248 C8.64275513,9.39975248 8.75010312,9.44282178 8.83682637,9.52945545 C8.92379812,9.61608911 8.96728399,9.72277228 8.96728399,9.84975248 L8.96728399,11.6846535 C8.96728399,11.8116337 8.92379812,11.9155941 8.83682637,11.9962871 C8.75010312,12.0769802 8.64275513,12.1173267 8.51552789,12.1173267 L0.434610239,12.1173267 Z M9.74928423,12.1173267 C9.6565972,12.1173267 9.57235885,12.0799505 9.49731466,12.004703 C9.42177348,11.929703 9.38425139,11.8460396 9.38425139,11.7537129 C9.38425139,11.6846535 9.39021517,11.6326733 9.40164574,11.5980198 L13.4508017,0.501980198 C13.5665984,0.167326733 13.7981917,0 14.1458302,0 L16.8568638,0 C17.2042538,0 17.4360956,0.167326733 17.5518923,0.501980198 L21.6010483,11.5980198 C21.6127274,11.6326733 21.6184426,11.6846535 21.6184426,11.7537129 C21.6184426,11.8460396 21.5806721,11.929703 21.5053794,12.004703 C21.4300867,12.0799505 21.3460968,12.1173267 21.2534098,12.1173267 L18.9941323,12.1173267 C18.7163197,12.1173267 18.5192666,11.9903465 18.4034699,11.7363861 L17.7777703,10.0574257 L13.2249237,10.0574257 L12.5992241,11.7363861 C12.4834274,11.9903465 12.2863743,12.1173267 12.0083132,12.1173267 L9.74928423,12.1173267 Z M13.9547409,7.46089109 L17.0479532,7.46089109 L15.501347,3.04653465 L13.9547409,7.46089109 Z M23.3909268,12.1173267 C23.2634511,12.1173267 23.1563516,12.0769802 23.0693799,11.9962871 C22.9826566,11.9155941 22.9391707,11.8116337 22.9391707,11.6846535 L22.9391707,0.45 C22.9391707,0.323267327 22.9826566,0.216336634 23.0693799,0.129950495 C23.1563516,0.0433168317 23.2634511,0 23.3909268,0 L25.3547489,0 C25.6442405,0 25.8529727,0.126980198 25.9802,0.380693069 L28.9692946,5.71237624 L31.9757836,0.380693069 C32.1030109,0.126980198 32.3117431,0 32.6012347,0 L34.5650567,0 C34.6925325,0 34.799632,0.0433168317 34.8866037,0.129950495 C34.973327,0.216336634 35.0168128,0.323267327 35.0168128,0.45 L35.0168128,11.6846535 C35.0168128,11.8116337 34.973327,11.9155941 34.8866037,11.9962871 C34.799632,12.0769802 34.6925325,12.1173267 34.5650567,12.1173267 L32.3579623,12.1173267 C32.2421657,12.1173267 32.1407815,12.0740099 32.0538097,11.9876238 C31.9670865,11.9009901 31.9236006,11.8 31.9236006,11.6846535 L31.9236006,5.38341584 L30.0467503,8.81113861 C29.8961649,9.07648515 29.6933965,9.20915842 29.4384451,9.20915842 L28.5001442,9.20915842 C28.2683023,9.20915842 28.0655339,9.07648515 27.8918389,8.81113861 L26.032383,5.38341584 L26.032383,11.6846535 C26.032383,11.8116337 25.9888971,11.9155941 25.9021739,11.9962871 C25.8152021,12.0769802 25.7081026,12.1173267 25.5806269,12.1173267 L23.3909268,12.1173267 Z M37.8145697,12.1173267 C37.698773,12.1173267 37.5973888,12.0740099 37.5106655,11.9876238 C37.4236938,11.9009901 37.3802079,11.8 37.3802079,11.6846535 L37.3802079,0.45 C37.3802079,0.323267327 37.4207119,0.216336634 37.5017199,0.129950495 C37.5829763,0.0433168317 37.6873424,0 37.8145697,0 L43.1844538,0 C44.6557672,0 45.7506172,0.3 46.4690039,0.900247525 C47.187142,1.50024752 47.5464596,2.35420792 47.5464596,3.46212871 C47.5464596,4.01608911 47.3986076,4.4950495 47.1034006,4.89876238 C46.8079452,5.30272277 46.4804344,5.5970297 46.1213654,5.78168317 C46.5964796,5.98935644 46.9960526,6.33267327 47.3205815,6.81163366 C47.6448619,7.29059406 47.8071263,7.83019802 47.8071263,8.43019802 C47.8071263,9.59554455 47.4217172,10.5017327 46.651396,11.1480198 C45.8810749,11.7940594 44.7775277,12.1173267 43.3407544,12.1173267 L37.8145697,12.1173267 Z M42.8194209,4.7950495 C43.2480674,4.7950495 43.5783115,4.67970297 43.8101533,4.44876238 C44.0417467,4.21782178 44.1577918,3.91806931 44.1577918,3.54876238 C44.1577918,3.19084158 44.0447286,2.89950495 43.8188505,2.67450495 C43.5929725,2.44925743 43.2597464,2.33688119 42.8194209,2.33688119 L40.6473637,2.33688119 L40.6473637,4.7950495 L42.8194209,4.7950495 Z M42.9759701,9.78044554 C43.4277262,9.78044554 43.7783465,9.65049505 44.0273342,9.39084158 C44.2763219,9.13143564 44.4010642,8.81113861 44.4010642,8.43019802 C44.4010642,8.03787129 44.2735885,7.71188119 44.018637,7.4519802 C43.7636856,7.19257426 43.4162956,7.06262376 42.9759701,7.06262376 L40.6473637,7.06262376 L40.6473637,9.78044554 L42.9759701,9.78044554 Z M50.100944,12.1173267 C49.9848988,12.1173267 49.8837631,12.0740099 49.7967914,11.9876238 C49.7098196,11.9009901 49.6663337,11.8 49.6663337,11.6846535 L49.6663337,0.45 C49.6663337,0.323267327 49.7070862,0.216336634 49.7880942,0.129950495 C49.8691021,0.0433168317 49.9734682,0 50.100944,0 L54.6714335,0 C56.3860193,0 57.718178,0.406683168 58.6684064,1.22054455 C59.6181379,2.03391089 60.1166102,3.20247525 60.162581,4.72574257 C60.1742601,5.06039604 60.1802239,5.50470297 60.1802239,6.05866337 C60.1802239,6.61262376 60.1742601,7.0509901 60.162581,7.37425743 C60.0467844,10.5361386 58.2452268,12.1173267 54.7581567,12.1173267 L50.100944,12.1173267 Z M54.6714335,9.52079208 C55.4010022,9.52079208 55.93973,9.34777228 56.287617,9.00148515 C56.635007,8.65544554 56.8203811,8.10123762 56.8434907,7.33960396 C56.8668488,7.0049505 56.8782794,6.57227723 56.8782794,6.04133663 C56.8782794,5.51039604 56.8668488,5.08341584 56.8434907,4.76039604 C56.8203811,4.02178218 56.6203461,3.47648515 56.2441311,3.12450495 C55.8674192,2.77252475 55.3145274,2.59653465 54.5844617,2.59653465 L52.9334895,2.59653465 L52.9334895,9.52079208 L54.6714335,9.52079208 Z M61.4835576,12.1173267 C61.3908706,12.1173267 61.3068807,12.0799505 61.231588,12.004703 C61.1560468,11.929703 61.1185248,11.8460396 61.1185248,11.7537129 C61.1185248,11.6846535 61.12424,11.6326733 61.1359191,11.5980198 L65.1848266,0.501980198 C65.3008718,0.167326733 65.5327136,0 65.8801036,0 L68.5911372,0 C68.9387757,0 69.170369,0.167326733 69.2861657,0.501980198 L73.3353217,11.5980198 C73.3470007,11.6326733 73.3524675,11.6846535 73.3524675,11.7537129 C73.3524675,11.8460396 73.3149454,11.929703 73.2396527,12.004703 C73.1646085,12.0799505 73.0806187,12.1173267 72.9876832,12.1173267 L70.7286542,12.1173267 C70.4505931,12.1173267 70.25354,11.9903465 70.1377433,11.7363861 L69.5120437,10.0574257 L64.9589486,10.0574257 L64.333249,11.7363861 C64.2177008,11.9903465 64.0208962,12.1173267 63.7428351,12.1173267 L61.4835576,12.1173267 Z M65.6890142,7.46089109 L68.7822265,7.46089109 L67.2356204,3.04653465 L65.6890142,7.46089109 Z" id="Lambda"/>
                    <path d="M76.9621843,12.2903465 C76.8347085,12.2903465 76.7278575,12.25 76.6406373,12.1693069 C76.5536655,12.0886139 76.5104282,11.9846535 76.5104282,11.8576733 L76.5104282,2.99455446 L73.4520046,2.99455446 C73.3245289,2.99455446 73.2174294,2.95420792 73.1304576,2.87351485 C73.0434859,2.79257426 73,2.68886139 73,2.56188119 L73,0.623019802 C73,0.496287129 73.0434859,0.389356436 73.1304576,0.302970297 C73.2174294,0.216336634 73.3245289,0.173019802 73.4520046,0.173019802 L82.8881905,0.173019802 C83.0154178,0.173019802 83.1227658,0.216336634 83.2097375,0.302970297 C83.2964608,0.389356436 83.3399466,0.496287129 83.3399466,0.623019802 L83.3399466,2.56188119 C83.3399466,2.68886139 83.2964608,2.79257426 83.2097375,2.87351485 C83.1227658,2.95420792 83.0154178,2.99455446 82.8881905,2.99455446 L79.8295185,2.99455446 L79.8295185,11.8576733 C79.8295185,11.9846535 79.7860326,12.0886139 79.6993093,12.1693069 C79.6123376,12.25 79.5052381,12.2903465 79.3780109,12.2903465 L76.9621843,12.2903465 Z M85.3035202,12.2903465 C85.187972,12.2903465 85.0863393,12.2470297 84.999616,12.1606436 C84.9126443,12.0740099 84.8691584,11.9730198 84.8691584,11.8576733 L84.8691584,0.623019802 C84.8691584,0.496287129 84.9096624,0.389356436 84.9909189,0.302970297 C85.0721753,0.216336634 85.1762929,0.173019802 85.3035202,0.173019802 L93.5059498,0.173019802 C93.6334255,0.173019802 93.740525,0.216336634 93.8274967,0.302970297 C93.9144685,0.389356436 93.9579544,0.496287129 93.9579544,0.623019802 L93.9579544,2.33688119 C93.9579544,2.46386139 93.9144685,2.56757426 93.8274967,2.64826733 C93.740525,2.72920792 93.6334255,2.76955446 93.5059498,2.76955446 L88.0148022,2.76955446 L88.0148022,4.96806931 L93.1237711,4.96806931 C93.2512468,4.96806931 93.3580978,5.01138614 93.445318,5.09777228 C93.5322898,5.18440594 93.5755272,5.29108911 93.5755272,5.41806931 L93.5755272,6.99331683 C93.5755272,7.12029703 93.5322898,7.2269802 93.445318,7.31361386 C93.3580978,7.4 93.2512468,7.44356436 93.1237711,7.44356436 L88.0148022,7.44356436 L88.0148022,9.69381188 L93.6451046,9.69381188 C93.7723318,9.69381188 93.8796798,9.73712871 93.9666515,9.82351485 C94.0533748,9.91014851 94.0968607,10.0168317 94.0968607,10.1438119 L94.0968607,11.8576733 C94.0968607,11.9846535 94.0533748,12.0886139 93.9666515,12.1693069 C93.8796798,12.25 93.7723318,12.2903465 93.6451046,12.2903465 L85.3035202,12.2903465 Z M100.630924,12.4633663 C99.5074972,12.4633663 98.5515535,12.3019802 97.7635895,11.9787129 C96.9758739,11.6556931 96.3792478,11.2287129 95.9737109,10.6975248 C95.5681741,10.1670792 95.3539751,9.58985149 95.3308655,8.96658416 C95.3308655,8.86287129 95.3683876,8.77623762 95.4436803,8.70693069 C95.518973,8.63787129 95.6086781,8.60321782 95.7130442,8.60321782 L98.0242562,8.60321782 C98.1631625,8.60321782 98.2762258,8.62623762 98.3631975,8.67252475 C98.4501693,8.71856436 98.5455897,8.79925743 98.6499558,8.91460396 C98.8005412,9.19158416 99.0351164,9.41955446 99.3536815,9.59851485 C99.672495,9.77747525 100.097911,9.86683168 100.630924,9.86683168 C101.256872,9.86683168 101.737453,9.77153465 102.073412,9.58143564 C102.409372,9.39084158 102.577351,9.12846535 102.577351,8.79356436 C102.577351,8.55148515 102.49038,8.35222772 102.316685,8.19653465 C102.14299,8.04059406 101.864929,7.9019802 101.48275,7.78094059 C101.100323,7.65990099 100.549916,7.52425743 99.8315291,7.37425743 C98.4300415,7.09727723 97.3814108,6.6759901 96.6861338,6.11039604 C95.9911053,5.5450495 95.6437153,4.73712871 95.6437153,3.68712871 C95.6437153,2.97153465 95.8432533,2.33391089 96.2430749,1.77425743 C96.6426479,1.21435644 97.2104492,0.778960396 97.9459816,0.467326733 C98.6817626,0.155693069 99.5363221,0 100.509412,0 C101.528721,0 102.412354,0.175990099 103.159565,0.527722772 C103.906777,0.879950495 104.480293,1.31831683 104.880115,1.84331683 C105.279688,2.36856436 105.491153,2.88490099 105.514263,3.39282178 C105.514263,3.49653465 105.479474,3.58613861 105.409897,3.66113861 C105.340319,3.73613861 105.253596,3.77351485 105.149479,3.77351485 L102.716506,3.77351485 C102.461555,3.77351485 102.264502,3.66980198 102.125595,3.46188119 C102.055769,3.21955446 101.876608,3.01485149 101.586867,2.84752475 C101.297376,2.68019802 100.938058,2.59653465 100.509412,2.59653465 C100.022867,2.59653465 99.646155,2.68316832 99.379773,2.85618812 C99.113391,3.02920792 98.9799515,3.28316832 98.9799515,3.61782178 C98.9799515,3.95247525 99.1541434,4.21509901 99.5015334,4.40544554 C99.8491719,4.5960396 100.497981,4.78910891 101.447713,4.98539604 C102.536847,5.18143564 103.402837,5.42673267 104.045683,5.7210396 C104.688777,6.01509901 105.163643,6.39628713 105.470777,6.86336634 C105.777912,7.33094059 105.93123,7.92252475 105.93123,8.63787129 C105.93123,9.42252475 105.705352,10.1034653 105.253596,10.6804455 C104.80184,11.2574257 104.176141,11.6987624 103.376746,12.004703 C102.577351,12.3106436 101.661912,12.4633663 100.630924,12.4633663 Z M110.727598,12.2903465 C110.600122,12.2903465 110.492774,12.25 110.406051,12.1693069 C110.319079,12.0886139 110.275593,11.9846535 110.275593,11.8576733 L110.275593,2.99455446 L107.217418,2.99455446 C107.089694,2.99455446 106.982843,2.95420792 106.895871,2.87351485 C106.8089,2.79257426 106.765662,2.68886139 106.765662,2.56188119 L106.765662,0.623019802 C106.765662,0.496287129 106.8089,0.389356436 106.895871,0.302970297 C106.982843,0.216336634 107.089694,0.173019802 107.217418,0.173019802 L116.653356,0.173019802 C116.780831,0.173019802 116.888179,0.216336634 116.974903,0.302970297 C117.061874,0.389356436 117.10536,0.496287129 117.10536,0.623019802 L117.10536,2.56188119 C117.10536,2.68886139 117.061874,2.79257426 116.974903,2.87351485 C116.888179,2.95420792 116.780831,2.99455446 116.653356,2.99455446 L113.594932,2.99455446 L113.594932,11.8576733 C113.594932,11.9846535 113.551446,12.0886139 113.464475,12.1693069 C113.377751,12.25 113.270652,12.2903465 113.143425,12.2903465 L110.727598,12.2903465 Z" id="Test"/>
                </g>
            </g>
        </g>
    </g>
</svg>